<?xml version="1.0" standalone="no"?>
<!DOCTYPE svg PUBLIC "-//W3C//DTD SVG 20010904//EN"
 "http://www.w3.org/TR/2001/REC-SVG-20010904/DTD/svg10.dtd">
<svg version="1.0" xmlns="http://www.w3.org/2000/svg"
 width="577.000000pt" height="582.000000pt" viewBox="0 0 577.000000 582.000000"
 preserveAspectRatio="xMidYMid meet">

<g transform="translate(0.000000,582.000000) scale(0.100000,-0.100000)"
fill="#000000" stroke="none">
<path d="M2370 5804 c-508 -62 -917 -195 -1287 -417 -594 -356 -959 -1020
-1069 -1942 -20 -174 -19 -704 2 -816 90 -481 339 -1088 647 -1577 155 -248
355 -469 544 -605 377 -269 784 -377 1488 -394 345 -8 533 13 820 94 407 113
937 378 1254 625 137 108 327 292 423 412 306 380 479 796 554 1336 26 182 26
568 0 705 -47 253 -135 492 -319 859 -218 438 -387 686 -650 955 -389 396
-849 643 -1405 753 -96 19 -146 22 -497 24 -290 2 -420 -1 -505 -12z m688
-1029 c59 -18 135 -82 164 -139 14 -28 23 -69 27 -126 l6 -85 95 -5 95 -5 0
-105 0 -104 -45 -13 c-25 -7 -232 -63 -460 -123 -228 -61 -423 -113 -433 -116
-16 -5 -17 9 -15 228 l3 233 36 3 36 3 6 73 c3 42 15 95 27 125 29 65 105 136
169 155 61 19 227 19 289 1z m-628 -380 c0 -46 -91 -58 -105 -14 -10 30 3 39
56 39 46 0 49 -2 49 -25z m1380 19 c0 -3 -16 -59 -37 -124 l-36 -118 31 -40
c18 -22 32 -44 32 -50 0 -11 -116 -43 -125 -34 -3 3 -5 54 -5 114 l0 110 -70
31 c-38 17 -70 34 -70 39 0 4 12 11 28 14 15 4 72 20 127 35 106 29 125 32
125 23z m-1380 -298 l0 -183 -39 -11 c-75 -23 -71 -35 -71 186 l0 197 55 -3
55 -4 0 -182z m1122 148 c24 -12 28 -18 17 -25 -8 -5 -24 -9 -36 -9 -18 0 -23
6 -23 25 0 29 2 30 42 9z m66 -246 l-3 -172 -380 -102 c-705 -190 -1052 -283
-1077 -290 -17 -5 -18 8 -18 170 l0 175 38 10 c169 45 842 226 1152 310 140
38 263 70 273 70 16 1 17 -12 15 -171z m-168 -527 c0 -218 -2 -250 -16 -255
-20 -8 -908 -8 -928 0 -13 5 -16 26 -16 130 0 68 2 124 5 124 5 0 509 136 780
210 77 21 148 39 158 39 16 1 17 -17 17 -248z m-1368 -8 l3 -106 83 -35 c45
-19 79 -39 75 -43 -11 -11 -260 -75 -267 -69 -2 3 11 60 30 128 l35 123 -24
32 c-40 54 -40 56 -5 66 69 20 67 22 70 -96z m348 -123 c0 -60 1 -113 3 -117
3 -10 -60 -16 -90 -8 -23 5 -24 7 -21 107 l3 101 40 13 c68 20 65 25 65 -96z
m-170 35 c0 -30 0 -30 -48 -9 -36 16 -37 17 -12 24 47 15 60 12 60 -15z m1384
-650 c0 -17 -4 -59 -9 -94 l-8 -64 65 66 c107 109 222 148 267 91 27 -34 28
-97 3 -144 -21 -39 -100 -104 -149 -122 -18 -7 -33 -15 -33 -18 0 -3 23 -16
52 -29 176 -81 219 -286 82 -399 -52 -43 -110 -56 -186 -41 -48 10 -65 9 -81
0 -16 -10 -22 -10 -33 1 -48 49 -54 703 -7 781 12 20 38 0 37 -28z m-841 11
c10 -11 12 -27 6 -68 -4 -29 -8 -73 -8 -96 l-1 -44 51 46 c93 84 234 145 299
131 70 -15 108 -81 88 -152 -14 -52 -75 -107 -148 -134 -71 -26 -71 -24 -35
-165 40 -157 86 -235 129 -218 9 3 29 28 46 55 32 53 31 52 54 43 56 -22 -45
-164 -116 -164 -44 0 -109 69 -138 147 -29 77 -60 199 -60 236 l0 30 -61 -7
c-34 -3 -73 -6 -87 -6 l-24 0 6 -87 c8 -96 24 -235 31 -270 10 -43 -46 -66
-59 -25 -15 47 -39 315 -40 447 -1 174 9 279 31 300 18 18 18 18 36 1z m-1251
-36 c35 -27 65 -101 83 -204 17 -103 41 -501 31 -540 -7 -28 -38 -36 -53 -13
-4 6 -10 85 -13 174 -3 89 -7 164 -10 167 -3 2 -55 2 -116 -1 l-111 -6 -23
-121 c-34 -181 -33 -181 -58 -184 -14 -2 -25 3 -29 14 -8 22 29 231 73 401 71
281 142 379 226 313z m751 -8 c62 -64 97 -263 100 -569 l2 -188 -25 0 c-22 0
-26 5 -32 45 -3 25 -7 105 -7 178 l-1 132 -112 -6 c-62 -4 -116 -9 -119 -13
-4 -3 -17 -60 -29 -126 -12 -66 -25 -131 -29 -145 -9 -30 -48 -40 -58 -15 -3
10 8 91 26 181 56 290 127 499 183 538 34 24 71 20 101 -12z m2206 -28 c24
-23 -4 -44 -59 -44 l-47 0 -6 -107 c-4 -58 -7 -192 -7 -297 l0 -192 57 1 c46
0 58 -3 61 -17 5 -24 -23 -35 -138 -53 -106 -17 -125 -14 -118 21 2 12 16 22
38 28 l35 8 2 275 c1 152 4 287 8 300 5 23 4 24 -38 22 -47 -3 -67 5 -67 25 0
25 26 35 106 44 91 10 153 5 173 -14z m-2123 -1029 l-6 -85 62 50 c65 52 148
90 198 90 16 0 41 -11 57 -24 23 -20 28 -32 28 -69 0 -57 -34 -96 -112 -129
-29 -12 -53 -25 -53 -29 0 -4 7 -40 15 -79 18 -86 49 -162 77 -187 20 -18 21
-17 49 17 16 19 29 38 29 43 0 5 10 7 23 5 28 -4 25 -30 -10 -76 -48 -64 -104
-61 -150 7 -23 35 -67 164 -77 231 l-6 35 -65 -3 -66 -4 6 -61 c3 -34 11 -101
16 -149 6 -48 8 -92 4 -98 -7 -12 -32 -13 -39 -2 -15 25 -38 319 -33 433 5
128 15 169 44 169 14 0 15 -11 9 -85z m1740 0 l-6 -85 62 50 c65 53 148 90
199 90 21 0 40 -10 61 -30 27 -27 30 -36 25 -73 -7 -51 -63 -107 -126 -126
-23 -6 -41 -17 -41 -24 0 -7 9 -49 20 -95 21 -88 48 -150 76 -172 15 -13 20
-11 45 20 16 19 29 38 29 43 0 5 10 7 23 5 28 -4 25 -30 -10 -76 -48 -64 -102
-62 -148 5 -25 37 -68 163 -79 233 l-6 35 -65 -3 -65 -4 6 -61 c3 -34 10 -99
16 -145 5 -45 8 -89 4 -97 -6 -16 -32 -20 -40 -6 -15 24 -38 326 -33 438 6
126 16 163 44 163 14 0 15 -11 9 -85z m-2617 20 c53 -45 68 -155 20 -155 -20
0 -22 7 -19 52 2 30 -38 78 -65 78 -45 0 -85 -41 -116 -120 -32 -79 -34 -268
-4 -320 16 -27 28 -36 54 -38 29 -3 40 3 82 47 27 28 56 51 64 51 28 0 15 -40
-27 -87 -76 -82 -141 -91 -196 -28 -40 45 -56 117 -49 229 8 149 64 279 131
306 42 17 93 11 125 -15z m454 -6 c12 -6 32 -21 45 -32 l22 -21 77 23 c50 14
79 19 86 12 19 -19 -2 -37 -71 -59 l-70 -23 10 -37 c36 -130 -66 -337 -176
-358 -60 -11 -124 28 -159 96 -25 49 -28 63 -24 125 2 39 14 96 27 128 44 115
156 185 233 146z m1332 -15 c37 -40 47 -85 52 -242 7 -180 -3 -311 -23 -319
-8 -3 -18 -2 -22 2 -4 3 -6 102 -4 218 2 181 0 219 -15 262 -16 45 -21 50 -48
50 -25 0 -36 -8 -62 -48 -40 -59 -84 -194 -112 -342 -22 -112 -35 -135 -61
-109 -12 12 -15 54 -15 247 0 255 4 287 36 287 21 0 21 -2 15 -157 l-6 -158
24 78 c32 106 80 200 117 231 42 35 92 35 124 0z m545 7 c0 -25 -19 -31 -105
-31 -41 0 -76 -4 -80 -10 -3 -5 -9 -62 -12 -126 l-6 -116 61 7 c58 7 62 6 62
-14 0 -15 -10 -23 -37 -30 -21 -6 -48 -11 -60 -11 -22 0 -23 -4 -23 -75 l0
-75 38 0 c22 0 61 7 88 15 27 8 59 15 72 15 24 0 29 -21 9 -39 -33 -27 -225
-57 -244 -37 -10 10 -10 427 0 488 10 55 9 55 140 57 89 1 97 -1 97 -18z"/>
<path d="M2855 4697 c-21 -12 -53 -42 -70 -65 -27 -39 -30 -53 -34 -128 l-3
-84 167 0 167 0 -3 84 c-4 75 -7 89 -34 128 -32 45 -95 88 -130 88 -11 0 -38
-10 -60 -23z"/>
<path d="M2699 4661 c-38 -39 -49 -60 -59 -105 -6 -30 -10 -72 -8 -93 3 -33 7
-38 31 -41 24 -3 27 -7 27 -44 0 -32 -6 -46 -30 -68 -38 -36 -40 -81 -5 -115
56 -56 153 -11 141 65 -3 21 -16 43 -31 55 -20 16 -25 30 -25 63 0 38 -2 42
-25 42 -24 0 -25 2 -25 69 0 78 12 119 51 179 38 57 16 53 -42 -7z m36 -411
c0 -16 -6 -26 -18 -28 -19 -4 -32 20 -23 44 9 25 41 13 41 -16z"/>
<path d="M3079 4681 c44 -61 61 -114 61 -189 l0 -73 28 3 c27 3 27 4 26 73 -1
83 -24 137 -81 184 -47 39 -61 40 -34 2z"/>
<path d="M3200 4379 c0 -33 -6 -47 -30 -69 -38 -36 -40 -81 -5 -115 30 -31 83
-33 116 -6 35 28 33 96 -4 125 -22 17 -27 30 -27 64 0 38 -2 42 -25 42 -23 0
-25 -4 -25 -41z m45 -129 c0 -16 -6 -26 -18 -28 -19 -4 -32 20 -23 44 9 25 41
13 41 -16z"/>
<path d="M3824 2681 c-92 -53 -214 -191 -169 -191 26 0 148 50 196 80 75 49
105 132 49 138 -14 1 -48 -11 -76 -27z"/>
<path d="M3620 2383 c0 -16 5 -82 11 -148 11 -130 19 -147 76 -171 110 -47
233 27 233 138 0 104 -138 208 -275 208 -42 0 -45 -2 -45 -27z"/>
<path d="M3009 2628 c-40 -20 -88 -56 -129 -97 l-65 -66 45 -3 c24 -2 73 2
109 8 154 27 239 99 201 171 -17 30 -84 25 -161 -13z"/>
<path d="M1487 2662 c-9 -9 -25 -39 -36 -65 -21 -47 -71 -212 -71 -231 0 -9
141 -1 187 11 20 5 22 10 17 47 -19 137 -47 234 -73 250 -4 3 -15 -2 -24 -12z"/>
<path d="M2220 2650 c-18 -25 -76 -187 -94 -262 -6 -27 -5 -28 36 -28 47 0
158 16 166 24 7 8 -28 207 -45 248 -19 48 -38 54 -63 18z"/>
<path d="M2555 1636 c-55 -26 -129 -86 -146 -118 -11 -21 -10 -21 58 -15 92 9
157 33 188 69 27 32 32 57 13 76 -18 18 -58 14 -113 -12z"/>
<path d="M4294 1635 c-57 -28 -129 -86 -145 -117 -11 -21 -10 -21 58 -15 92 9
157 33 188 69 63 75 1 114 -101 63z"/>
<path d="M1855 1610 c-18 -20 -17 -20 21 -19 21 1 53 4 69 8 29 7 30 7 8 19
-33 18 -78 15 -98 -8z"/>
<path d="M1779 1516 c-29 -67 -36 -156 -14 -212 18 -47 61 -84 99 -84 38 0 83
40 117 102 29 55 33 72 34 140 0 42 -4 81 -10 86 -6 6 -38 6 -83 -1 -53 -7
-80 -7 -98 2 -24 10 -26 9 -45 -33z"/>
</g>
</svg>
